<svg height="512pt" viewBox="0 0 512 512" width="512pt" xmlns="http://www.w3.org/2000/svg"><g fill="#95a5a5"><path d="m132.265625 264.535156c-73.046875 0-132.265625-59.21875-132.265625-132.269531 0-73.046875 59.21875-132.265625 132.265625-132.265625 73.050781 0 132.269531 59.21875 132.269531 132.265625 0 4.714844-3.824218 8.535156-8.535156 8.535156s-8.535156-3.820312-8.535156-8.535156c0-63.621094-51.574219-115.199219-115.199219-115.199219-63.621094 0-115.199219 51.578125-115.199219 115.199219 0 63.625 51.578125 115.199219 115.199219 115.199219 4.714844 0 8.535156 3.824218 8.535156 8.535156s-3.820312 8.535156-8.535156 8.535156zm0 0"/><path d="m256 204.96875c-4.710938 0-8.535156-3.820312-8.535156-8.53125v-68.4375c0-4.710938 3.824218-8.535156 8.535156-8.535156s8.535156 3.824218 8.535156 8.535156v68.4375c0 4.710938-3.824218 8.53125-8.535156 8.53125zm0 0"/><path d="m196.523438 264.535156h-59.988282c-4.714844 0-8.535156-3.824218-8.535156-8.535156s3.820312-8.535156 8.535156-8.535156h59.988282c4.710937 0 8.53125 3.824218 8.53125 8.535156s-3.820313 8.535156-8.53125 8.535156zm0 0"/><path d="m379.734375 264.535156c-4.714844 0-8.535156-3.824218-8.535156-8.535156s3.820312-8.535156 8.535156-8.535156c63.621094 0 115.199219-51.574219 115.199219-115.199219 0-63.621094-51.578125-115.199219-115.199219-115.199219-63.625 0-115.199219 51.578125-115.199219 115.199219 0 4.714844-3.824218 8.535156-8.535156 8.535156s-8.535156-3.820312-8.535156-8.535156c0-73.046875 59.21875-132.265625 132.269531-132.265625 73.046875 0 132.265625 59.21875 132.265625 132.265625 0 73.050781-59.21875 132.269531-132.265625 132.269531zm0 0"/><path d="m256 204.96875c-4.710938 0-8.535156-3.820312-8.535156-8.53125v-68.4375c0-4.710938 3.824218-8.535156 8.535156-8.535156s8.535156 3.824218 8.535156 8.535156v68.4375c0 4.710938-3.824218 8.53125-8.535156 8.53125zm0 0"/><path d="m375.464844 264.535156h-59.902344c-4.710938 0-8.53125-3.824218-8.53125-8.535156s3.820312-8.535156 8.53125-8.535156h59.902344c4.714844 0 8.535156 3.824218 8.535156 8.535156s-3.820312 8.535156-8.535156 8.535156zm0 0"/><path d="m132.265625 512c-73.046875 0-132.265625-59.21875-132.265625-132.265625 0-73.050781 59.21875-132.269531 132.265625-132.269531 4.714844 0 8.535156 3.824218 8.535156 8.535156s-3.820312 8.535156-8.535156 8.535156c-63.621094 0-115.199219 51.574219-115.199219 115.199219 0 63.621094 51.578125 115.199219 115.199219 115.199219 63.625 0 115.199219-51.578125 115.199219-115.199219 0-4.714844 3.824218-8.535156 8.535156-8.535156s8.535156 3.820312 8.535156 8.535156c-.082031 73.015625-59.253906 132.183594-132.269531 132.265625zm0 0"/><path d="m256 392.535156c-4.710938 0-8.535156-3.824218-8.535156-8.535156v-68.4375c0-4.710938 3.824218-8.53125 8.535156-8.53125s8.535156 3.820312 8.535156 8.53125v68.4375c0 4.710938-3.824218 8.535156-8.535156 8.535156zm0 0"/><path d="m196.523438 264.535156h-59.988282c-4.714844 0-8.535156-3.824218-8.535156-8.535156s3.820312-8.535156 8.535156-8.535156h59.988282c4.710937 0 8.53125 3.824218 8.53125 8.535156s-3.820313 8.535156-8.53125 8.535156zm0 0"/><path d="m379.734375 512c-73.015625-.082031-132.1875-59.25-132.269531-132.265625 0-4.714844 3.824218-8.535156 8.535156-8.535156s8.535156 3.820312 8.535156 8.535156c0 46.59375 28.066406 88.597656 71.113282 106.429687 43.046874 17.832032 92.597656 7.976563 125.542968-24.972656 32.949219-32.945312 42.804688-82.496094 24.972656-125.542968-17.832031-43.046876-59.835937-71.113282-106.429687-71.113282-4.714844 0-8.535156-3.824218-8.535156-8.535156s3.820312-8.535156 8.535156-8.535156c73.046875 0 132.265625 59.21875 132.265625 132.269531 0 73.046875-59.21875 132.265625-132.265625 132.265625zm0 0"/><path d="m256 392.535156c-4.710938 0-8.535156-3.824218-8.535156-8.535156v-68.4375c0-4.710938 3.824218-8.53125 8.535156-8.53125s8.535156 3.820312 8.535156 8.53125v68.4375c0 4.710938-3.824218 8.535156-8.535156 8.535156zm0 0"/><path d="m375.464844 264.535156h-59.902344c-4.710938 0-8.53125-3.824218-8.53125-8.535156s3.820312-8.535156 8.53125-8.535156h59.902344c4.714844 0 8.535156 3.824218 8.535156 8.535156s-3.820312 8.535156-8.535156 8.535156zm0 0"/></g><path d="m380.5 356.351562-27.902344 20.394532-36.265625-36.265625c-33.359375-33.222657-87.304687-33.222657-120.664062 0l-40.019531 40.019531-20.394532-27.902344h.085938l36.265625-36.265625c15.992187-16.011719 24.964843-37.722656 24.949219-60.351562-.015626-22.625-9.019532-44.324219-25.035157-60.3125l-40.019531-40.019531 27.902344-20.394532 36.265625 36.265625c33.359375 33.222657 87.304687 33.222657 120.664062 0l40.019531-40.019531 20.394532 27.902344v.085937l-36.179688 36.179688c-16.015625 15.988281-25.019531 37.6875-25.035156 60.3125-.015625 22.628906 8.957031 44.339843 24.949219 60.351562zm0 0" fill="#ecf0f1"/><path d="m380.5 356.351562-27.902344 20.394532-36.265625-36.265625c-15.996093-16.003907-37.707031-24.972657-60.332031-24.917969v-119.125c22.625.054688 44.335938-8.914062 60.332031-24.917969l40.019531-40.019531 20.394532 27.902344v.085937l-36.179688 36.179688c-16.015625 15.988281-25.019531 37.6875-25.035156 60.3125-.015625 22.628906 8.957031 44.339843 24.949219 60.351562zm0 0" fill="#d1d4d1"/><path d="m150.101562 144.042969.253907.253906 9.046875-9.042969 47.019531-46.933594c2.746094-2.734374 4.289063-6.449218 4.289063-10.324218s-1.542969-7.589844-4.289063-10.328125c-4.621094-4.574219-11.695313-5.582031-17.410156-2.472657l-40.703125 22.699219c-2.609375 1.414063-4.792969 3.507813-6.3125 6.058594l-8.960938 14.933594-1.28125 2.046875" fill="#2c3e50"/><path d="m114.433594 120.492188-.257813-.257813-9.046875 9.046875-47.015625 46.933594c-2.746093 2.734375-4.289062 6.449218-4.289062 10.324218s1.542969 7.589844 4.289062 10.324219c4.621094 4.578125 11.695313 5.582031 17.40625 2.476563l40.703125-22.699219c2.613282-1.417969 4.792969-3.507813 6.316406-6.058594l8.960938-14.933593 1.277344-2.046876" fill="#35495e"/><path d="m401.09375 131.785156 16.957031 10.195313c2.574219 1.507812 4.683594 3.703125 6.09375 6.335937l22.625 40.730469c3.535157 6.355469 1.847657 14.34375-3.960937 18.71875-5.808594 4.378906-13.953125 3.804687-19.085938-1.34375l-56.058594-56.054687.300782-.300782" fill="#2c3e50"/><path d="m358.371094 132.75-16.953125-10.199219c-2.578125-1.507812-4.6875-3.699219-6.09375-6.335937l-22.628907-40.726563c-3.535156-6.355469-1.84375-14.34375 3.960938-18.722656 5.808594-4.375 13.953125-3.800781 19.089844 1.347656l56.054687 56.054688-.300781.300781" fill="#35495e"/><path d="m380.214844 401.09375-10.195313 16.953125c-1.507812 2.578125-3.703125 4.6875-6.335937 6.09375l-40.730469 22.628906c-6.355469 3.535157-14.339844 1.84375-18.71875-3.960937-4.375-5.808594-3.800781-13.953125 1.34375-19.085938l56.054687-56.058594.300782.300782" fill="#2c3e50"/><path d="m379.25 358.371094 10.199219-16.953125c1.507812-2.578125 3.699219-4.6875 6.335937-6.09375l40.726563-22.628907c6.355469-3.535156 14.34375-1.84375 18.722656 3.960938 4.375 5.808594 3.800781 13.953125-1.347656 19.089844l-56.054688 56.054687-.300781-.300781" fill="#35495e"/><path d="m153.628906 379.25 16.953125 10.199219c2.578125 1.507812 4.6875 3.699219 6.09375 6.335937l22.628907 40.726563c3.535156 6.355469 1.84375 14.34375-3.960938 18.722656-5.808594 4.375-13.953125 3.800781-19.089844-1.347656l-56.054687-56.054688.300781-.300781" fill="#35495e"/><path d="m110.90625 380.214844-16.953125-10.195313c-2.578125-1.507812-4.6875-3.703125-6.09375-6.335937l-22.628906-40.730469c-3.535157-6.355469-1.847657-14.34375 3.960937-18.71875 5.808594-4.378906 13.953125-3.804687 19.085938 1.34375l56.058594 56.054687-.300782.300782" fill="#2c3e50"/><path d="m150.101562 144.042969c-.789062 1.203125-1.703124 2.320312-2.730468 3.328125-3.894532 3.855468-9.113282 6.082031-14.59375 6.230468-1.199219 0-2.394532-.085937-3.582032-.257812-9.363281-1.28125-16.722656-8.644531-18.007812-18.003906-.777344-5.179688.378906-10.464844 3.246094-14.847656.789062-1.203126 1.703125-2.320313 2.730468-3.328126 3.894532-3.859374 9.113282-6.085937 14.589844-6.230468 1.199219 0 2.398438.085937 3.585938.253906 9.359375 1.285156 16.722656 8.644531 18.003906 18.007812.777344 5.179688-.375 10.464844-3.242188 14.847657zm0 0" fill="#bdc3c7"/><path d="m401.066406 132.265625c0 11.78125-9.550781 21.335937-21.332031 21.335937s-21.335937-9.554687-21.335937-21.335937 9.554687-21.332031 21.335937-21.332031 21.332031 9.550781 21.332031 21.332031zm0 0" fill="#bdc3c7"/><path d="m401.066406 379.734375c0 11.78125-9.550781 21.332031-21.332031 21.332031s-21.335937-9.550781-21.335937-21.332031 9.554687-21.335937 21.335937-21.335937 21.332031 9.554687 21.332031 21.335937zm0 0" fill="#bdc3c7"/><path d="m153.601562 379.734375c0 11.78125-9.554687 21.332031-21.335937 21.332031s-21.332031-9.550781-21.332031-21.332031 9.550781-21.335937 21.332031-21.335937 21.335937 9.554687 21.335937 21.335937zm0 0" fill="#bdc3c7"/><path d="m273.066406 256c0 9.425781-7.640625 17.066406-17.066406 17.066406s-17.066406-7.640625-17.066406-17.066406 7.640625-17.066406 17.066406-17.066406 17.066406 7.640625 17.066406 17.066406zm0 0" fill="#f29c1f"/></svg>